# xmcd CD database file
#
# Track frame offsets:
#	150
#	8627
#	32525
#	37492
#	61542
#	72770
#	77427
#	80892
#	99925
#	113750
#	125327
#	131767
#	142835
#	149530
#	156350
#	176162
#	195755
#	225367
#	229922
#	235257
#	243415
#	275695
#	280397
#	285765
#	307437
#	337445
#
# Disc length: 4560 seconds
#
# Revision: 2
# Processed by: cddbd v1.5.2PL0 Copyright (c) Steve Scherf et al.
# Submitted via: CDex 1.70beta2
#
DISCID=7411ce1a
DTITLE=Various Artist - 魔女っ子MusicSampler1966～1981 Disc-2
DYEAR=1999
DGENRE=Soundtrack
TTITLE0=幸せを呼ぶリミットちゃん (TVサイズ)／ 大杉久美子、ヤング・フレッシュ ： ミラクル少女リミットちゃんから
TTITLE1=おてんばさんこんにちは ： ミラクル少女リミットちゃんから
TTITLE2=センチなリミットちゃん (インストゥルメンタル) ： ミラクル少女リミットちゃんから
TTITLE3=ミラクルパワーの秘密 (インストゥルメンタル) ： ミラクル少女リミットちゃんから
TTITLE4=幸せを呼ぶリミットちゃん (インストゥルメンタル) ： ミラクル少女リミットちゃんから
TTITLE5=センチなリミットちゃん (TVサイズ)／大杉久美子、ヤング・フレッシュ ： ミラクル少女リミットちゃんから
TTITLE6=キューティーハニー (TVサイズ)／前川陽子 ： キューティーハニーから
TTITLE7=パンサークローが爪を磨ぐ ： キューティーハニーから
TTITLE8=夜霧のハニー (インストゥルメンタル) ： キューティーハニーから
TTITLE9=What's new HONEY? ： キューティーハニーから
TTITLE10=キューティーハニー (インストゥルメンタル) ： キューティーハニーから
TTITLE11=ハニーフラッシュ！ ： キューティーハニーから
TTITLE12=夜霧のハニー (1コーラス)／前川陽子 ： キューティーハニーから
TTITLE13=魔女っ子メグちゃん (TVサイズ)／前川陽子 ： 魔女っ子メグちゃんから
TTITLE14=すてきな魔女がやってきた ： 魔女っ子メグちゃんから
TTITLE15=あの娘はライバル ： 魔女っ子メグちゃんから
TTITLE16=決戦・大魔法！ ： 魔女っ子メグちゃんから
TTITLE17=ひとりぼっちのメグ (TVサイズ)／前川陽子 ： 魔女っ子メグちゃんから
TTITLE18=花の子ルンルン (TVサイズ)／堀江美都子、ザ・チャープス ： 花の子ルンルンから
TTITLE19=ふしぎな訪問者 ： 花の子ルンルンから
TTITLE20=希望の花を求めて ： 花の子ルンルンから
TTITLE21=女の子って (TVサイズ)／猪股裕子、小林亜星 ： 花の子ルンルンから
TTITLE22=ハローララベル (TVサイズ)／堀江美都子、コロムビアゆりかご会 ： 魔法少女ララベルから
TTITLE23=魔法界からハロー！ ： 魔法少女ララベルから
TTITLE24=人間って大好き ： 魔法少女ララベルから
TTITLE25=魔法少女ララベル (TVサイズ)／堀江美都子、コロムビアゆりかご会 ： 魔法少女ララベルから
EXTD=YEAR: 1999
EXTT0=
EXTT1=
EXTT2=
EXTT3=
EXTT4=
EXTT5=
EXTT6=
EXTT7=
EXTT8=
EXTT9=
EXTT10=
EXTT11=
EXTT12=
EXTT13=
EXTT14=
EXTT15=
EXTT16=
EXTT17=
EXTT18=
EXTT19=
EXTT20=
EXTT21=
EXTT22=
EXTT23=
EXTT24=
EXTT25=
PLAYORDER=
